<?xml version="1.0" encoding="UTF-8"?>
<!DOCTYPE svg PUBLIC "-//W3C//DTD SVG 1.1//EN" "http://www.w3.org/Graphics/SVG/1.1/DTD/svg11.dtd">
<!-- Creator: CorelDRAW X7 -->
<svg xmlns="http://www.w3.org/2000/svg" xml:space="preserve" width="198.438mm" height="166.808mm" version="1.1" style="shape-rendering:geometricPrecision; text-rendering:geometricPrecision; image-rendering:optimizeQuality; fill-rule:evenodd; clip-rule:evenodd"
viewBox="0 0 19844 16681"
 xmlns:xlink="http://www.w3.org/1999/xlink">
 <defs>
  <style type="text/css">
   <![CDATA[
    .str0 {stroke:black;stroke-width:26.46}
    .str2 {stroke:#120B0B;stroke-width:52.9201}
    .str1 {stroke:#140C0C;stroke-width:52.9201}
    .fil1 {fill:none}
    .fil19 {fill:#1D1819;transform: rotate(360deg);transition-duration: 1s;transition-delay: now;animation-timing-function: linear;animation-iteration-count: infinite;}
    .fil0 {fill:black}
    .fil2 {fill:#050505}
    .fil16 {fill:#080808}
    .fil14 {fill:#0A0A0A}
    .fil3 {fill:#0D0808}
    .fil17 {fill:#0D0D0D}
    .fil11 {fill:#0F0F0F}
    .fil5 {fill:#120B0B}
    .fil4 {fill:#141414}
    .fil10 {fill:#171717}
    .fil8 {fill:#191919}
    .fil13 {fill:#1A1615}
    .fil12 {fill:#1A1A1A}
    .fil9 {fill:#1C1C1C;}
    .fil6 {fill:#242424}
    .fil7 {fill:#292929}
    .fil15 {fill:#6D6B6C}
    .fil18 {fill:white;}
   ]]>
  </style>
 </defs>
 <g id="Layer_x0020_1">
  <metadata id="CorelCorpID_0Corel-Layer"/>
  <path class="fil0" d="M17578 5661c-178,-441 -543,-552 -577,-582 -310,-274 -66,-561 -528,-812 -484,-263 -1904,-979 -3022,-830 -244,32 -737,465 -1090,465 -579,0 -2439,0 -2439,0 0,0 -1860,0 -2439,0 -353,0 -846,-433 -1090,-465 -1118,-149 -2538,567 -3022,830 -462,251 -218,538 -528,812 -34,30 -399,141 -577,582 -1660,4128 -2312,6751 -2263,8339 76,2498 2026,2681 2026,2681 979,-228 2951,-3417 4459,-3417 824,0 3434,0 3434,0 0,0 2610,0 3434,0 1508,0 3480,3189 4459,3417 0,0 1950,-183 2026,-2681 50,-1588 -603,-4211 -2263,-8339z"/>
  <path class="fil1" d="M2811 5097c14,-8 25,-13 31,-17 -11,6 -21,11 -31,17z"/>
  <path class="fil1" d="M17001 5079c6,5 20,12 40,22 -13,-7 -26,-15 -40,-22z"/>
  <path class="fil2" d="M17578 5661c-88,-220 -223,-358 -341,-444 -80,-60 -152,-95 -196,-116 -20,-10 -34,-17 -40,-22 -888,-476 -2579,-1009 -3108,-908 -688,133 -1734,2110 -2354,2110 -399,0 -1601,0 -1601,0 0,0 -1202,0 -1600,0 -620,0 -1666,-1977 -2354,-2110 -519,-100 -2265,436 -3142,909 -6,4 -17,9 -31,17 -46,22 -134,64 -230,139 -111,88 -233,221 -315,425 -1660,4128 -2312,6751 -2263,8339 76,2498 2026,2681 2026,2681 979,-228 2951,-3417 4459,-3417 824,0 3434,0 3434,0 0,0 2610,0 3434,0 1508,0 3480,3189 4459,3417 0,0 1950,-183 2026,-2681 50,-1588 -603,-4211 -2263,-8339z"/>
  <line class="fil1" x1="2843" y1="5079" x2="2843" y2= "5120" />
  <line class="fil1" x1="17001" y1="5066" x2="17001" y2= "5091" />
  <path class="fil0" d="M7347 12227c-885,0 -1605,-720 -1605,-1604 0,-885 720,-1604 1605,-1604 884,0 1604,719 1604,1604 0,884 -720,1604 -1604,1604z"/>
  <g>
   <path class="fil3" d="M7347 9045c870,0 1577,708 1577,1578 0,870 -707,1577 -1577,1577 -870,0 -1578,-707 -1578,-1577 0,-870 708,-1578 1578,-1578l0 0zm0 -53c-901,0 -1631,730 -1631,1631 0,901 730,1630 1631,1630 900,0 1630,-729 1630,-1630 0,-901 -730,-1631 -1630,-1631l0 0z"/>
  </g>
  <path class="fil4" d="M7347 11978c-189,0 -337,-35 -346,-82 0,-1 0,-3 0,-4 0,-3 0,-411 0,-911 0,-7 -6,-13 -13,-13l-911 0c-48,0 -86,-151 -86,-345 0,-194 38,-346 86,-346l911 0c7,0 13,-6 13,-13l0 -911c0,-1 0,-2 0,-4l2 -6c1,-1 2,-2 2,-3 13,-21 56,-40 120,-53 8,-2 16,-3 24,-5 9,-1 17,-3 25,-3 1,0 3,-1 4,-1 7,-1 16,-2 24,-3 9,-1 18,-2 27,-3 10,-1 19,-1 27,-2l63 -2c9,0 19,0 28,0 194,0 345,37 345,85 0,5 0,425 0,911 0,7 6,13 14,13l910 0c48,0 86,152 86,346 0,194 -38,345 -86,345l-910 0c-8,0 -14,6 -14,13l0 911c0,1 0,3 0,4 -8,47 -157,82 -345,82z"/>
  <g>
   <path class="fil5" d="M7347 9281c214,0 332,43 332,72 0,1 0,1 0,1l0 910c0,15 12,27 27,27l910 0c30,0 72,126 72,332 0,206 -42,332 -72,332l-910 0c-15,0 -27,12 -27,27l0 910c0,1 0,2 0,2 -5,30 -124,70 -332,70 -209,0 -327,-40 -332,-70 -1,-1 -1,-1 -1,-2l0 -910c0,-15 -12,-27 -26,-27l-911 0c-30,0 -73,-126 -73,-332 0,-206 43,-332 73,-332l911 0c14,0 26,-12 26,-27l0 -911c0,0 0,-1 0,-1l0 0c0,0 0,0 0,0l0 0c1,-1 1,-3 2,-4 0,0 0,-1 1,-1 4,-7 23,-30 110,-47 1,0 1,0 2,0 7,-2 15,-3 22,-5l2 0c9,-2 16,-2 21,-3 1,0 3,0 5,0 8,-2 16,-3 24,-4 1,0 1,0 1,0 9,-1 18,-2 27,-3l0 0c0,0 0,0 1,0 8,0 17,-1 25,-2l3 0c5,0 10,0 15,0l11 -1c2,0 3,0 4,0 9,0 18,0 26,-1l4 0c9,0 18,0 27,0l0 0zm0 -26c-10,0 -19,0 -28,0 -1,0 -2,0 -3,0 -9,0 -18,1 -27,1 -1,0 -3,0 -4,0 -9,0 -17,0 -26,1 -1,0 -2,0 -4,0 -8,1 -17,1 -26,2 0,0 -1,0 -1,0 -9,1 -18,2 -27,3 0,0 0,0 0,0 -9,1 -18,2 -26,4 -1,0 -1,0 -2,0 -8,0 -17,2 -25,3 0,0 -1,0 -2,0 -8,2 -16,4 -23,5 0,0 0,0 0,0 -65,13 -113,32 -129,59 -1,1 -2,3 -3,4 0,1 0,1 0,1 -1,2 -1,3 -1,5 -1,0 -1,0 -1,1 0,1 0,2 -1,4 0,2 0,4 0,5 0,205 0,545 0,911 -502,0 -911,0 -911,0l0 0c-132,0 -132,718 0,718 205,0 545,0 911,0 0,502 0,910 0,910l0 0c0,2 0,4 0,7 11,61 185,92 359,92 173,0 347,-31 358,-92 0,-3 1,-5 1,-7 0,-205 0,-545 0,-910 501,0 910,0 910,0l0 0c132,0 132,-718 0,-718 -205,0 -545,0 -911,0 0,-502 0,-911 0,-911l0 0 0 0c1,-66 -179,-98 -358,-98l0 0z"/>
  </g>
  <path class="fil6" d="M6988 10264l-95 -96 -816 0c-23,0 -48,6 -73,23l73 73c0,0 409,0 911,0z"/>
  <path class="fil7" d="M6077 10264l0 0 -73 -73c-37,24 -71,72 -94,162 -17,73 -27,168 -27,270 0,101 10,197 27,269 23,90 57,138 94,163l73 -73c-132,0 -132,-718 0,-718z"/>
  <path class="fil6" d="M7123 9274c0,0 0,0 0,0 7,-1 15,-3 23,-5 1,0 2,0 2,0 8,-1 17,-3 25,-3 1,0 1,0 2,0 8,-2 17,-3 26,-4 0,0 0,0 0,0 9,-1 18,-2 27,-3 0,0 1,0 1,0 9,-1 18,-1 26,-2 2,0 3,0 4,0 9,-1 17,-1 26,-1 1,0 3,0 4,0 9,0 18,-1 27,-1 1,0 2,0 3,0 9,0 18,0 28,0 179,0 359,32 359,98l72 -73c-23,-36 -71,-72 -162,-93 -73,-18 -168,-28 -269,-28 -102,0 -198,10 -270,28 -77,19 -124,47 -151,78l68 68c16,-27 64,-46 129,-59z"/>
  <path class="fil8" d="M8616 10264l73 -73c-25,-17 -51,-23 -73,-23l-815 0 -95 96c365,0 705,0 910,0z"/>
  <path class="fil9" d="M7706 9353l0 0c0,0 0,409 0,911l95 -96 0 0 0 -815c0,-22 -6,-48 -23,-73l-72 73 0 0z"/>
  <path class="fil7" d="M6988 9353c0,-1 0,-3 0,-5 1,-2 1,-3 1,-4 0,-1 1,-1 1,-1 0,-2 0,-4 1,-5 0,0 0,0 0,-1 1,-1 2,-3 3,-4l-68 -68c-26,30 -33,61 -33,88l0 815 95 96c0,-366 0,-706 0,-911z"/>
  <path class="fil10" d="M8616 10982l0 0c0,0 -409,0 -910,0l95 95 815 0 40 0 9 -9c8,-3 16,-8 24,-13l-73 -73 0 0z"/>
  <path class="fil11" d="M7706 11892l72 74c17,-25 23,-51 23,-74l0 -815 -95 -95c0,365 0,705 0,910z"/>
  <path class="fil11" d="M8783 10353c-22,-90 -58,-138 -94,-162l-73 73c132,0 132,717 0,717l73 74c37,-25 72,-73 94,-163 18,-72 28,-168 28,-269 0,-102 -10,-197 -28,-270z"/>
  <path class="fil10" d="M7705 11899c-11,61 -185,92 -358,92 -174,0 -348,-31 -359,-92 0,-3 0,-5 0,-7l-74 74c25,36 73,71 163,93 72,18 168,27 270,27 101,0 196,-9 269,-27 91,-22 139,-57 162,-93l-72 -74c0,2 -1,4 -1,7z"/>
  <path class="fil9" d="M6988 11892l0 0c0,0 0,-408 0,-910l-95 95 0 815 0 23 2 6c3,14 9,30 19,45l74 -74 0 0z"/>
  <path class="fil12" d="M6077 10982l-73 73c25,16 50,22 73,22l816 0 95 -95c-366,0 -706,0 -911,0z"/>
  <path class="fil13" d="M11878 7418c0,275 -223,498 -498,498 -275,0 -497,-223 -497,-498 0,-274 222,-498 497,-498 275,1 498,224 498,498z"/>
  <path class="fil14 str0" d="M11806 7418c0,236 -191,426 -426,426 -235,0 -426,-190 -426,-426 0,-235 191,-426 426,-426 235,0 426,191 426,426z"/>
  <rect class="fil15" x="11190" y="7296" width="379.97" height="41.06"/>
  <rect class="fil15" x="11190" y="7399" width="379.97" height="41.06"/>
  <rect class="fil15" x="11190" y="7500" width="379.97" height="40.56"/>
  <path class="fil13" d="M9021 7418c0,275 -223,498 -498,498 -275,0 -497,-223 -497,-498 0,-274 222,-498 497,-498 275,1 498,224 498,498z"/>
  <path class="fil14 str0" d="M8949 7418c0,236 -191,426 -426,426 -235,0 -426,-190 -426,-426 0,-235 191,-426 426,-426 235,0 426,191 426,426z"/>
  <polygon class="fil15" points="8456,7415 8376,7415 8376,7315 8521,7315 8521,7350 8568,7350 8568,7269 8333,7269 8333,7465 8456,7465 "/>
  <path class="fil15" d="M8476 7367l0 200 237 0 0 -200 -237 0zm189 153l-144 0 0 -105 144 0 0 105z"/>
  <path class="fil16 str1" d="M4907 9300c-987,0 -1791,-804 -1791,-1791 0,-988 804,-1791 1791,-1791 988,0 1792,803 1792,1791 0,987 -804,1791 -1792,1791z"/>
  <path class="fil0 str2" d="M6392 7405c0,819 -665,1484 -1485,1484 -820,0 -1484,-665 -1484,-1484 0,-820 664,-1485 1484,-1485 820,0 1485,665 1485,1485z"/>
  <path class="fil16 str1" d="M12516 12315c-988,0 -1791,-803 -1791,-1791 0,-987 803,-1791 1791,-1791 987,0 1791,804 1791,1791 0,988 -804,1791 -1791,1791z"/>
  <path class="fil0 str2" d="M14000 10420c0,820 -664,1484 -1484,1484 -820,0 -1484,-664 -1484,-1484 0,-820 664,-1484 1484,-1484 820,0 1484,664 1484,1484z"/>
  <path class="fil14" d="M14996 9400c-368,0 -667,-299 -667,-667 0,-367 299,-666 667,-666 367,0 666,299 666,666 0,368 -299,667 -666,667z"/>
  <g>
   <path class="fil13" d="M14996 8106c346,0 627,281 627,627 0,347 -281,627 -627,627 -347,0 -627,-280 -627,-627 0,-346 280,-627 627,-627l0 0zm0 -79c-390,0 -707,317 -707,706 0,390 317,707 707,707 389,0 706,-317 706,-707 0,-389 -317,-706 -706,-706l0 0z"/>
  </g>
  <path class="fil14" d="M14996 6726c-368,0 -667,-300 -667,-667 0,-368 299,-667 667,-667 367,0 666,299 666,667 0,367 -299,667 -666,667z"/>
  <g>
   <path class="fil13" d="M14996 5432c346,0 627,281 627,627 0,346 -281,627 -627,627 -347,0 -627,-281 -627,-627 0,-346 280,-627 627,-627l0 0zm0 -79c-390,0 -707,316 -707,706 0,389 317,706 707,706 389,0 706,-317 706,-706 0,-390 -317,-706 -706,-706l0 0z"/>
  </g>
  <path class="fil14" d="M16333 8063c-368,0 -667,-299 -667,-667 0,-368 299,-667 667,-667 367,0 667,299 667,667 0,368 -300,667 -667,667z"/>
  <g>
   <path class="fil13" d="M16333 6769c346,0 627,281 627,627 0,346 -281,627 -627,627 -346,0 -627,-281 -627,-627 0,-346 281,-627 627,-627l0 0zm0 -79c-390,0 -706,316 -706,706 0,389 316,706 706,706 389,0 706,-317 706,-706 0,-390 -317,-706 -706,-706l0 0z"/>
  </g>
  <path class="fil14" d="M13658 8063c-367,0 -666,-299 -666,-667 0,-368 299,-667 666,-667 368,0 667,299 667,667 0,368 -299,667 -667,667z"/>
  <g>
   <path class="fil13" d="M13658 6769c347,0 628,281 628,627 0,346 -281,627 -628,627 -346,0 -626,-281 -626,-627 0,-346 280,-627 626,-627l0 0zm0 -79c-389,0 -706,316 -706,706 0,389 317,706 706,706 390,0 707,-317 707,-706 0,-390 -317,-706 -707,-706l0 0z"/>
  </g>
  <path class="fil12" d="M9938 4141c0,0 -2352,-29 -2660,-79l-434 808c536,616 1101,1411 1494,1411 398,0 1600,0 1600,0 0,0 1202,0 1601,0 393,0 957,-795 1494,-1411l-434 -808c-307,50 -2661,79 -2661,79z"/>
  <path class="fil17" d="M12599 4062l-96 -179c-49,12 -97,20 -142,20 -579,0 -2439,0 -2439,0 0,0 -1860,0 -2439,0 -36,0 -74,-5 -113,-14l-92 173c308,50 2660,79 2660,79 0,0 2354,-29 2661,-79z"/>
  <path class="fil12" d="M17001 5079c-238,-210 -149,-428 -304,-631 7,9 13,17 19,26 -1,0 -2554,-1113 -3196,-912 -412,129 -721,405 -869,482l420 783c296,-336 581,-609 822,-656 529,-101 2220,432 3108,908 0,0 0,0 0,0z"/>
  <path class="fil17" d="M13520 3562c642,-201 3195,912 3196,912 -6,-9 -12,-17 -19,-26 0,-1 -1,-2 -2,-3 -3,-4 -5,-6 -8,-10 -1,-1 -2,-3 -3,-4 -3,-3 -5,-6 -8,-9 -1,-1 -2,-3 -4,-4 -2,-3 -4,-6 -7,-8 -2,-2 -3,-4 -5,-6 -2,-2 -5,-4 -7,-7 -2,-2 -4,-4 -5,-5 -3,-3 -6,-5 -8,-8 -2,-2 -4,-3 -6,-5 -2,-3 -5,-5 -8,-7 -2,-2 -4,-4 -6,-6 -3,-3 -6,-4 -8,-7 -3,-2 -5,-4 -7,-6 -3,-2 -6,-4 -9,-7 -2,-2 -5,-3 -7,-5 -4,-2 -6,-5 -10,-7 -2,-2 -4,-4 -7,-5 -3,-3 -7,-5 -10,-7 -3,-2 -5,-4 -8,-6 -3,-2 -7,-5 -10,-7 -3,-2 -6,-4 -8,-5 -4,-3 -9,-5 -12,-8 -3,-1 -6,-3 -8,-4 -5,-3 -9,-6 -14,-8 -3,-2 -5,-3 -7,-5 -7,-4 -15,-8 -22,-12 -484,-263 -1904,-979 -3022,-830 -201,26 -572,326 -895,430l95 177c148,-77 457,-353 869,-482z"/>
  <path class="fil17" d="M6393 3437c-1118,-149 -2538,567 -3022,830 -7,4 -15,8 -22,12 -2,1 -4,3 -7,4 -4,3 -9,5 -14,8 -2,2 -5,3 -7,5 -4,2 -8,5 -12,8 -3,1 -5,3 -8,5 -3,2 -7,4 -11,7 -2,1 -5,3 -7,5 -4,2 -7,5 -11,7 -2,2 -4,4 -6,5 -4,3 -7,5 -10,8 -3,1 -5,3 -7,4 -3,3 -6,6 -9,8 -2,2 -4,3 -6,5 -3,3 -6,5 -9,8 -2,1 -4,3 -6,5 -3,2 -6,5 -9,8 -1,1 -3,3 -5,4 -3,3 -5,6 -8,8 -2,1 -3,3 -5,4 -2,4 -5,6 -8,9 -1,1 -2,3 -3,4 -3,3 -6,6 -9,9 -1,2 -2,3 -3,4 -3,3 -6,6 -8,9 -1,1 -2,2 -3,3 -3,4 -6,7 -8,11 -1,1 -1,1 -2,2 -3,4 -6,8 -8,12 -1,0 -1,1 -1,1 -4,4 -6,9 -9,12 1,0 2585,-1110 3227,-909 412,129 721,405 868,482l91 -168c-329,-95 -715,-412 -923,-439z"/>
  <path class="fil12" d="M7238 4051c4,1 8,3 12,5 -4,-2 -8,-4 -12,-5z"/>
  <path class="fil12" d="M7226 4044c-148,-76 -457,-353 -869,-482 -640,-200 -3209,902 -3227,909 -131,197 -58,406 -287,608 0,0 -1,1 -1,1 877,-473 2623,-1009 3142,-909 241,47 526,320 822,656l419 -783c0,0 1,0 1,0z"/>
  <path class="fil0" d="M7226 4044c4,2 8,5 12,7 -4,-2 -8,-5 -12,-7z"/>
  <path class="fil0" d="M6825 4848c6,8 13,15 19,22l434 -808 92 -173c-9,-2 -18,-3 -27,-6 -9,-2 -18,-5 -27,-7l-91 168 -419 783c6,7 12,14 19,21l0 0z"/>
  <path class="fil0" d="M12651 4044l-95 -177c-9,3 -17,6 -26,9 -9,2 -18,4 -27,7l96 179 434 808c6,-7 13,-14 19,-22 6,-7 13,-14 19,-21l-420 -783z"/>
  <polygon class="fil12" points="9444,4479 9444,4479 "/>
  <path class="fil18" d="M10784 5197c0,476 -386,862 -862,862 -476,0 -862,-386 -862,-862 0,-476 386,-862 862,-862 476,0 862,386 862,862z"/>
  <path class="fil12" d="M14528 145c-11,-9 -22,-17 -32,-24l-62 2910 1409 192c-319,-3091 -1137,-2938 -1315,-3078z"/>
  <path class="fil4" d="M13812 4c-286,10 -319,302 -322,402l0 32c0,0 77,1077 0,2463 263,61 1020,140 1020,140 0,0 1,-553 18,-1338 21,-992 -32,-1582 -32,-1582 -170,-119 -359,-129 -684,-117z"/>
  <path class="fil12" d="M5318 145c11,-9 21,-17 32,-24l62 2910 -1409 192c319,-3091 1136,-2938 1315,-3078z"/>
  <path class="fil4" d="M6033 4c287,10 319,302 323,402l0 32c0,0 -77,1077 0,2463 -263,61 -1020,140 -1020,140 0,0 -1,-553 -18,-1338 -21,-992 32,-1582 32,-1582 170,-119 359,-129 683,-117z"/>
  <g id="Layer_2">
   <g>
   </g>
   <g>
   </g>
   <g>
   </g>
   <g>
   </g>
   <g>
   </g>
   <g>
   </g>
   <g>
   </g>
   <g>
   </g>
   <g>
   </g>
   <g>
   </g>
   <g>
   </g>
   <g>
   </g>
   <g>
   </g>
   <g>
   </g>
   <g>
   </g>
  </g>
  <path class="fil19 rotating" d="M9928 4414c432,0 783,350 783,783 0,432 -351,782 -783,782 -432,0 -783,-350 -783,-782 0,-433 351,-783 783,-783zm-297 1386l200 1 199 0 116 -162c39,-55 78,-110 117,-165l-167 -326 -82 -158 106 457 -131 276 -297 -56 -309 -353 81 159c57,110 111,217 167,327zm612 -1206l-199 -1 -199 0 -116 162c-39,55 -78,110 -117,165l167 326 82 158 -106 -457 130 -276 297 56 310 353 -81 -159c-57,-110 -111,-217 -168,-327z"/>
 </g>
</svg>
